<svg xmlns="http://www.w3.org/2000/svg" viewBox="0 0 300 300" width="300" height="300">
  <defs>
    <linearGradient id="abg2" x1="0%" y1="0%" x2="100%" y2="100%">
      <stop offset="0%" stop-color="#fefce8"/>
      <stop offset="100%" stop-color="#fffbeb"/>
    </linearGradient>
    <linearGradient id="ag2" x1="0%" y1="0%" x2="100%" y2="100%">
      <stop offset="0%" stop-color="#fbbf24"/>
      <stop offset="100%" stop-color="#f59e0b"/>
    </linearGradient>
    <linearGradient id="ask2" x1="0%" y1="0%" x2="100%" y2="100%">
      <stop offset="0%" stop-color="#fecaca"/>
      <stop offset="100%" stop-color="#fca5a5"/>
    </linearGradient>
  </defs>
  <rect width="300" height="300" fill="url(#abg2)" rx="20"/>
  <circle cx="150" cy="140" r="110" fill="rgba(251,191,36,0.06)"/>
  <!-- Shoulders/suit -->
  <path d="M80 250 Q100 200 150 195 Q200 200 220 250 Z" fill="url(#ag2)" opacity="0.15"/>
  <path d="M90 250 Q110 205 150 200 Q190 205 210 250 Z" fill="url(#ag2)" opacity="0.2"/>
  <path d="M135 200 L150 185 L165 200 L150 210 Z" fill="white" opacity="0.6"/>
  <!-- Neck -->
  <rect x="138" y="140" width="24" height="60" rx="8" fill="url(#ask2)"/>
  <!-- Head -->
  <ellipse cx="150" cy="115" rx="48" ry="55" fill="url(#ask2)"/>
  <!-- Short hair -->
  <path d="M102 100 Q100 60 120 50 Q135 42 150 40 Q165 42 180 50 Q200 60 198 100 Q195 78 180 70 Q165 64 150 62 Q135 64 120 70 Q105 78 102 100Z" fill="#374151"/>
  <path d="M102 100 Q98 108 100 120 Q102 112 105 106 Z" fill="#374151"/>
  <path d="M198 100 Q202 108 200 120 Q198 112 195 106 Z" fill="#374151"/>
  <!-- Eyes -->
  <ellipse cx="133" cy="115" rx="7" ry="8" fill="white"/>
  <ellipse cx="167" cy="115" rx="7" ry="8" fill="white"/>
  <ellipse cx="134" cy="116" rx="4" ry="5" fill="#1f2937" opacity="0.8"/>
  <ellipse cx="166" cy="116" rx="4" ry="5" fill="#1f2937" opacity="0.8"/>
  <circle cx="135" cy="114" r="1.5" fill="white"/>
  <circle cx="167" cy="114" r="1.5" fill="white"/>
  <!-- Eyebrows -->
  <path d="M124 103 Q133 99 142 103" fill="none" stroke="#374151" stroke-width="2" stroke-linecap="round" opacity="0.5"/>
  <path d="M158 103 Q167 99 176 103" fill="none" stroke="#374151" stroke-width="2" stroke-linecap="round" opacity="0.5"/>
  <!-- Nose -->
  <path d="M150 120 L147 132 Q150 134 153 132 Z" fill="#fca5a5" opacity="0.4"/>
  <!-- Smile -->
  <path d="M139 140 Q150 149 161 140" fill="none" stroke="#e5e7eb" stroke-width="2" stroke-linecap="round" opacity="0.6"/>
  <!-- Beard stubble -->
  <path d="M130 148 Q140 152 150 150 Q160 152 170 148" fill="none" stroke="#374151" stroke-width="1" opacity="0.15"/>
  <circle cx="145" cy="149" r="1" fill="#374151" opacity="0.1"/>
  <circle cx="155" cy="149" r="1" fill="#374151" opacity="0.1"/>
</svg>